<svg width="24" height="24" viewBox="0 0 24 24" fill="none" xmlns="http://www.w3.org/2000/svg">
<g id="Layer_1" clip-path="url(#clip0_397_89)">
<path id="Vector" d="M12.0061 1.42824e-06C5.38537 -0.00319797 0.00448027 5.36924 2.05798e-06 11.9875C-0.00383641 18.6096 5.36234 23.9898 11.9818 24C18.6025 24.0102 23.9885 18.6423 24 12.0234C24.0115 5.39099 18.6364 0.00256095 12.0061 1.42824e-06ZM19.4118 14.867C19.4111 15.512 19.3152 16.1429 19.0855 16.747C18.5251 18.2206 17.4049 18.9923 15.8912 19.2425C15.4914 19.3084 15.0807 19.3321 14.6745 19.334C12.8032 19.343 10.9319 19.3436 9.0607 19.3346C8.31923 19.3314 7.59504 19.2047 6.91563 18.8957C5.56322 18.2801 4.88189 17.1738 4.66182 15.7487C4.60936 15.4109 4.59464 15.0647 4.59081 14.7217C4.58185 13.8105 4.58761 12.8987 4.58761 11.9869H4.60872C4.60872 10.8754 4.55498 9.76074 4.62215 8.65375C4.71236 7.17562 5.31436 5.95409 6.68085 5.22015C7.4076 4.82918 8.19896 4.67177 9.014 4.66601C11.0049 4.65257 12.9964 4.65577 14.9879 4.66601C15.6296 4.66921 16.2617 4.77671 16.8637 5.01219C18.3427 5.59 19.1002 6.72707 19.3382 8.25062C19.3919 8.5968 19.4079 8.95129 19.4092 9.30194C19.4156 11.157 19.4137 13.0126 19.4118 14.8676V14.867Z" fill="white"/>
<path id="Vector_2" d="M18.0459 9.33523C18.0452 9.06392 18.0292 8.79133 17.9979 8.52258C17.8559 7.30681 17.0856 6.43529 15.9015 6.16782C15.5918 6.09807 15.2687 6.06096 14.9514 6.05648C13.9675 6.0424 12.9836 6.05136 11.9997 6.05136V6.02704C11.8077 6.02704 11.6158 6.0232 11.4239 6.02768C10.4489 6.0488 9.47074 6.03152 8.49961 6.10575C7.3775 6.19085 6.54775 6.75779 6.17798 7.85326C6.0398 8.26279 5.96687 8.71198 5.96111 9.1439C5.93808 10.9919 5.94959 12.8399 5.95343 14.6878C5.95343 14.9348 5.9707 15.1831 5.99885 15.4288C6.15815 16.8391 7.10881 17.7944 8.52392 17.8975C9.44771 17.9653 10.3779 17.9691 11.3049 17.9666C12.704 17.9621 14.1057 17.9698 15.5016 17.8911C16.625 17.8277 17.4548 17.2403 17.8226 16.1455C17.9653 15.7219 18.0324 15.2554 18.0382 14.8068C18.0619 12.9832 18.0504 11.1589 18.0459 9.33523ZM12.0304 15.9004C9.86035 15.9081 8.10937 14.1842 8.09913 12.0291C8.0889 9.85161 9.81877 8.10602 11.9945 8.09962C14.1633 8.09322 15.9027 9.83817 15.9008 12.0189C15.8995 14.1529 14.1645 15.8927 12.0304 15.9004ZM15.9232 8.89435C15.4895 8.89307 15.1478 8.55585 15.144 8.12457C15.1402 7.68753 15.4946 7.33624 15.9347 7.342C16.3621 7.34712 16.705 7.69649 16.7031 8.12457C16.7018 8.55073 16.3518 8.89563 15.9232 8.89435Z" fill="white"/>
<path id="Vector_3" d="M14.5164 12.0119C14.5055 13.4094 13.3783 14.526 11.9881 14.5157C10.5922 14.5055 9.47266 13.3755 9.48354 11.9876C9.49441 10.5907 10.6223 9.47411 12.0124 9.4837C13.4103 9.49394 14.5273 10.6221 14.5164 12.0119Z" fill="white"/>
</g>
<defs>
<clipPath id="clip0_397_89">
<rect width="24" height="24" fill="white"/>
</clipPath>
</defs>
</svg>
