<svg width="25" height="28" viewBox="0 0 25 28" fill="none" xmlns="http://www.w3.org/2000/svg">
<path d="M22.6146 23.2264C22.8118 23.4382 22.9227 23.7266 22.9227 24.0274C22.9227 24.3283 22.8118 24.6166 22.6146 24.8285C22.419 25.0421 22.1528 25.1622 21.875 25.1622C21.5973 25.1622 21.331 25.0421 21.1354 24.8285L12.5 15.4641L3.86459 24.8285C3.669 25.0421 3.40276 25.1622 3.12501 25.1622C2.84726 25.1622 2.58101 25.0421 2.38542 24.8285C2.18822 24.6166 2.0773 24.3283 2.0773 24.0274C2.0773 23.7266 2.18822 23.4382 2.38542 23.2264L11.0313 13.8732L2.38542 4.52012C2.1212 4.23393 2.018 3.8168 2.11472 3.42586C2.21143 3.03492 2.49336 2.72956 2.8543 2.62481C3.21524 2.52006 3.60036 2.63183 3.86459 2.91801L12.5 12.2824L21.1354 2.91801C21.5439 2.47561 22.2061 2.47561 22.6146 2.91801C23.0231 3.36042 23.0231 4.07771 22.6146 4.52012L13.9688 13.8732L22.6146 23.2264Z" fill="black"/>
</svg>
