<svg xmlns="http://www.w3.org/2000/svg" width="42" height="42" viewBox="0 0 42 42" fill="none">
  <path d="M21.5753 0.292898C21.1848 -0.0976257 20.5516 -0.0976257 20.1611 0.292898L13.7972 6.65686C13.4066 7.04738 13.4066 7.68055 13.7972 8.07107C14.1877 8.4616 14.8208 8.4616 15.2114 8.07107L20.8682 2.41422L26.5251 8.07107C26.9156 8.4616 27.5488 8.4616 27.9393 8.07107C28.3298 7.68055 28.3298 7.04738 27.9393 6.65686L21.5753 0.292898ZM21.8682 20.9996V1.00001H19.8682V20.9996H21.8682Z" fill="#CB3100"/>
  <path d="M20.4313 41.7137C20.8269 42.0991 21.46 42.0908 21.8454 41.6953L28.1258 35.2488C28.5112 34.8532 28.503 34.2201 28.1074 33.8347C27.7118 33.4493 27.0787 33.4576 26.6933 33.8532L21.1107 39.5833L15.3805 34.0008C14.985 33.6154 14.3518 33.6236 13.9664 34.0192C13.581 34.4148 13.5893 35.0479 13.9849 35.4333L20.4313 41.7137ZM19.8683 21.0126L20.1293 41.0105L22.1291 40.9844L21.8681 20.9865L19.8683 21.0126Z" fill="#CB3100"/>
  <path d="M41.7045 21.7067C42.0951 21.3162 42.0951 20.683 41.7045 20.2925L35.3406 13.9285C34.9501 13.538 34.3169 13.538 33.9264 13.9285C33.5358 14.319 33.5358 14.9522 33.9264 15.3427L39.5832 20.9996L33.9264 26.6564C33.5358 27.047 33.5358 27.6801 33.9264 28.0706C34.3169 28.4612 34.9501 28.4612 35.3406 28.0706L41.7045 21.7067ZM20.9979 21.9996L40.9974 21.9996L40.9974 19.9996L20.9979 19.9996L20.9979 21.9996Z" fill="#CB3100"/>
  <path d="M0.283726 20.5627C-0.10167 20.9583 -0.0934084 21.5914 0.302178 21.9768L6.74863 28.2572C7.14422 28.6426 7.77733 28.6343 8.16272 28.2387C8.54812 27.8431 8.53986 27.21 8.14427 26.8246L2.41409 21.2421L7.99666 15.5119C8.38205 15.1163 8.37379 14.4832 7.97821 14.0978C7.58262 13.7124 6.94951 13.7207 6.56411 14.1162L0.283726 20.5627ZM20.9848 19.9997L0.986952 20.2606L1.01305 22.2604L21.0109 21.9995L20.9848 19.9997Z" fill="#CB3100"/>
</svg>