<svg width="24" height="24" viewBox="0 0 24 24" fill="none" xmlns="http://www.w3.org/2000/svg">
<g id="linkedin icon">
<mask id="mask0_73_4451" style="mask-type:luminance" maskUnits="userSpaceOnUse" x="0" y="0" width="24" height="24">
<g id="clippath">
<path id="Vector" d="M23.6613 0H0V24H23.6613V0Z" fill="white"/>
</g>
</mask>
<g mask="url(#mask0_73_4451)">
<g id="Group">
<path id="Vector_2" d="M11.8306 0C5.29839 0 0 5.37097 0 12C0 18.629 5.29839 24 11.8306 24C18.3629 24 23.6613 18.629 23.6613 12C23.6613 5.37097 18.3629 0 11.8306 0ZM8.11693 18.6653H5.37097V9.70161H8.11693V18.6653ZM6.75 8.47984C5.86693 8.47984 5.15323 7.75403 5.15323 6.85887C5.15323 5.96371 5.86693 5.2379 6.75 5.2379C7.63306 5.2379 8.34677 5.96371 8.34677 6.85887C8.34677 7.75403 7.63306 8.47984 6.75 8.47984ZM18.4113 18.6653H15.6653V14.3105C15.6653 13.2702 15.6532 11.9274 14.2379 11.9274C12.8226 11.9274 12.5927 13.0524 12.5927 14.2258V18.6653H9.84677V9.70161H12.4718V10.9234H12.5202C13.0524 9.99194 14.0565 9.43548 15.121 9.47177C17.9032 9.47177 18.4113 11.3226 18.4113 13.7419V18.6532V18.6653Z" fill="white"/>
</g>
</g>
</g>
</svg>
